<svg xmlns="http://www.w3.org/2000/svg" viewBox="0 0 3057.42 3057.42"><defs><style>.cls-1{fill:#fff;}.cls-2{fill:none;}</style></defs><g id="Capa_2" data-name="Capa 2"><g id="Capa_1-2" data-name="Capa 1"><path class="cls-1" d="M2640.9,1804l-99.32-165.76a17.44,17.44,0,0,0-29.95,0L2413,1804a17.45,17.45,0,0,0,15,26.37h198A17.44,17.44,0,0,0,2640.9,1804Z"/><path class="cls-1" d="M2568.05,1495l-35.72-59.9a17.45,17.45,0,0,1,0-17.88l108.54-181.68a17.42,17.42,0,0,1,15-8.5h71.43a17.44,17.44,0,0,1,15,26.38L2598,1495A17.44,17.44,0,0,1,2568.05,1495Z"/><path class="cls-1" d="M312.67,1822.77,386,1299.38H556.43q41.49,0,72.34,20a119.61,119.61,0,0,1,45.61,54.4q14.76,34.4,8.78,77-5.24,39.63-26.36,71.41a180.59,180.59,0,0,1-52.52,52.15A166.77,166.77,0,0,1,536.61,1600l97.95,222.81H587.83L491,1602.58H383.71l-30.66,220.19Zm76.65-260.57H516.8a119.18,119.18,0,0,0,57.57-14.77,136.18,136.18,0,0,0,45.8-40.18,126.2,126.2,0,0,0,23-58q4.85-32.15-6.54-57.76A90.51,90.51,0,0,0,602,1351.16Q578.85,1336.4,549,1336.4H421.47Z"/><path class="cls-1" d="M733.24,1822.77l73.28-523.39h315.53l-5.61,40.38H841.29L815.87,1522.2h229.91l-5.23,40.38H809.89L779.23,1782.4h275.15l-5.61,40.37Z"/><path class="cls-1" d="M1376.64,1299.38h53.09l117.39,523.39h-43l-26.92-118.13H1215.51l-59.44,118.13h-43Zm-140.57,364.88h232.16l-71.4-318.89Z"/><path class="cls-1" d="M1618.89,1822.77l73.28-523.39h40.37l-67.66,483h247.48l-5.6,40.37Z"/><path class="cls-1" d="M2465.65,1511.16l-147.58-248.4c-9.06-15.25-32.44-8.83-32.44,8.91v361.44c0-1.19.12-2.3.12-3.5V1299.22h0v330.39c0,1.2-.09,2.31-.11,3.5q-.9,56.25-30.31,85.25-30.42,29.84-85.4,29.83-54.27,0-84.68-29.83t-30.41-88.75V1324.14a24.93,24.93,0,0,0-24.93-24.92h-33.72a24.93,24.93,0,0,0-24.93,24.92v304q0,63.41,26.39,107.4t71.47,65.63q45.11,21.64,100.07,21.63t100.44-21.63a170,170,0,0,0,28.56-17.24,172.06,172.06,0,0,0,44-48.39l.13-.23L2465.63,1529A17.44,17.44,0,0,0,2465.65,1511.16Z"/><rect class="cls-2" width="3057.42" height="3057.42"/></g></g></svg>